<svg width="114" height="49" viewBox="0 0 114 49" fill="none" xmlns="http://www.w3.org/2000/svg">
<path d="M24.7432 8.9751V30.9844H27.5903V29.2238C28.9669 30.6476 30.5686 31.3594 32.3955 31.3594C33.4243 31.3589 34.4429 31.1556 35.3931 30.7613C36.3433 30.3669 37.2064 29.7891 37.9332 29.0609C38.66 28.3328 39.2362 27.4686 39.6288 26.5176C40.0214 25.5667 40.2227 24.5477 40.2213 23.5189C40.2229 22.49 40.0217 21.4709 39.6292 20.5198C39.2366 19.5687 38.6605 18.7043 37.9337 17.976C37.2069 17.2477 36.3437 16.6698 35.3934 16.2754C34.4431 15.8809 33.4244 15.6776 32.3955 15.6771C30.5695 15.6771 28.9678 16.3889 27.5903 17.8127V8.9751H24.7432ZM28.9104 20.0538C29.5973 19.3661 30.4727 18.8976 31.426 18.7074C32.3792 18.5172 33.3674 18.614 34.2657 18.9855C35.1639 19.3569 35.9318 19.9864 36.4723 20.7943C37.0128 21.6022 37.3016 22.5522 37.3022 23.5243C37.302 24.1684 37.1747 24.8062 36.9277 25.4011C36.6807 25.9959 36.3187 26.5363 35.8626 26.9911C35.4064 27.4458 34.865 27.8062 34.2694 28.0514C33.6738 28.2967 33.0356 28.422 32.3915 28.4202C31.7445 28.4304 31.1022 28.3088 30.5038 28.0628C29.9053 27.8168 29.3632 27.4516 28.9104 26.9894C28.2444 26.3555 27.7845 25.5361 27.5903 24.6375V22.415C27.7826 21.5115 28.2426 20.6868 28.9104 20.0485V20.0538Z" fill="#1FABE9"/>
<path d="M47.082 16.8301H44.2349V30.9855H47.082V16.8301Z" fill="#1FABE9"/>
<path d="M56.0089 34.7071H53.1618H20.1606V2.8471H53.1618V8.67343H56.0089V0H17.3135V37.5542L56.0089 37.5528V34.7071Z" fill="#1FABE9"/>
<path d="M59.4912 16.8303H56.0087V11.5205H53.1617V16.8103V16.8303H49.6792V19.6774H53.1617V19.7134V19.7121V30.9843H56.0087V19.6774H59.4912V19.7134L59.4925 19.7121V16.8103H59.4912V16.8303Z" fill="#1FABE9"/>
<path d="M67.9636 26.0187L63.7123 16.8301H60.4941L67.2482 30.9841H68.679L75.4464 16.8301H72.2282L67.9636 26.0187Z" fill="black"/>
<path d="M81.2924 16.8101H78.4453V30.9855H81.2924V16.8101Z" fill="black"/>
<path d="M88.5146 8.96191H85.6528V30.9845H88.5146V8.96191Z" fill="black"/>
<path d="M95.5024 8.96191H92.6406V30.9845H95.5024V8.96191Z" fill="black"/>
<path d="M110.763 30.0324L109.348 27.4576C109.099 27.6258 108.927 27.7379 108.828 27.798C108.266 28.1172 107.644 28.3185 107.002 28.3896C106.359 28.4607 105.709 28.4002 105.09 28.2118C103.889 27.8688 103.11 27.4243 102.767 26.8877L112.033 21.7568L113.807 20.7637C113.525 20.1751 113.357 19.8293 113.295 19.7132C113.145 19.4369 112.983 19.1793 112.819 18.9324C111.958 17.7382 110.778 16.8104 109.415 16.2551C108.051 15.6999 106.559 15.5395 105.109 15.7924C103.658 16.0452 102.308 16.7011 101.213 17.6851C100.118 18.669 99.3219 19.9412 98.9158 21.3563C98.3449 23.3523 98.5884 25.4932 99.5929 27.3101C100.597 29.1269 102.281 30.4716 104.275 31.0495C105.263 31.3493 106.302 31.4435 107.327 31.3264C108.353 31.2093 109.344 30.8834 110.239 30.3688C110.376 30.2994 110.551 30.1846 110.763 30.0324ZM101.727 22.1572C102.085 20.9073 102.925 19.8505 104.061 19.2189C105.198 18.5873 106.539 18.4324 107.789 18.7882C108.865 19.097 109.524 19.4147 109.765 19.7412L101.489 24.3369C101.345 23.9538 101.425 23.225 101.727 22.1572Z" fill="black"/>
<path d="M47.082 8.67334H44.2349V11.5204H47.082V8.67334Z" fill="#1FABE9"/>
<path d="M81.2924 8.67334H78.4453V11.5204H81.2924V8.67334Z" fill="black"/>
<path d="M6.75802 0H6.75668C3.02507 0 0 3.02507 0 6.75668V6.75802C0 10.4896 3.02507 13.5147 6.75668 13.5147H6.75802C10.4896 13.5147 13.5147 10.4896 13.5147 6.75802V6.75668C13.5147 3.02507 10.4896 0 6.75802 0Z" fill="#1FABE9"/>
<path d="M17.3135 42.7237H19.2396V48.135H19.9964V42.7237H21.9318V42.0483H17.3135V42.7237Z" fill="black"/>
<path d="M25.6934 48.135H29.6817V47.4596H26.4515V45.3613H29.6176V44.6859H26.4515V42.7237H29.6817V42.0483H25.6934V48.135Z" fill="black"/>
<path d="M36.528 47.5691C35.1932 47.5691 34.1828 46.5386 34.1828 45.0971C34.1828 43.6555 35.1959 42.6237 36.528 42.6237C36.8574 42.627 37.1811 42.7097 37.4718 42.8647C37.7625 43.0197 38.0115 43.2424 38.1978 43.514L38.8372 43.1576C38.5834 42.7803 38.239 42.4727 37.8356 42.2628C37.4322 42.053 36.9827 41.9476 36.528 41.9563C34.7768 41.9563 33.3979 43.2337 33.3979 45.1051C33.3979 46.9764 34.7768 48.2525 36.528 48.2525C37.6052 48.2525 38.3353 47.7413 38.8465 47.0512L38.1978 46.6948C38.0112 46.9649 37.7617 47.1856 37.4708 47.3379C37.1799 47.4902 36.8564 47.5696 36.528 47.5691Z" fill="black"/>
<path d="M46.8881 44.6672H43.3296V42.0483H42.5728V48.135H43.3296V45.3426H46.8881V48.135H47.6463V42.0483H46.8881V44.6672Z" fill="black"/>
<path d="M56.1079 46.8028L52.6041 42.0483H51.8286V48.135H52.5854V43.2803L56.1346 48.135H56.8648V42.0483H56.1079V46.8028Z" fill="black"/>
<path d="M63.8214 41.9482C62.0154 41.9482 60.8008 43.299 60.8008 45.097C60.8008 46.895 62.0154 48.2444 63.8214 48.2444C65.6274 48.2444 66.842 46.8936 66.842 45.097C66.842 43.3004 65.6194 41.9482 63.8214 41.9482ZM63.8214 47.569C62.4532 47.569 61.5856 46.5105 61.5856 45.097C61.5856 43.6835 62.4532 42.6236 63.8214 42.6236C65.1896 42.6236 66.0572 43.6728 66.0572 45.097C66.0572 46.5212 65.1815 47.569 63.8214 47.569Z" fill="black"/>
<path d="M71.5462 42.0483H70.7881V48.135H74.3747V47.4596H71.5462V42.0483Z" fill="black"/>
<path d="M80.6642 41.9482C78.8569 41.9482 77.6436 43.299 77.6436 45.097C77.6436 46.895 78.8569 48.2444 80.6642 48.2444C82.4715 48.2444 83.6915 46.8936 83.6915 45.097C83.6915 43.3004 82.4621 41.9482 80.6642 41.9482ZM80.6642 47.569C79.296 47.569 78.4284 46.5105 78.4284 45.097C78.4284 43.6835 79.296 42.6236 80.6642 42.6236C82.0323 42.6236 82.8999 43.6728 82.8999 45.097C82.8999 46.5212 82.0243 47.569 80.6642 47.569Z" fill="black"/>
<path d="M90.0582 45.6804H92.1471V46.9218C91.7053 47.3395 91.1214 47.5742 90.5134 47.5785C89.1786 47.5785 88.1682 46.5387 88.1682 45.0971C88.1682 43.6555 89.1813 42.6237 90.5134 42.6237C90.8513 42.6222 91.1852 42.6968 91.4903 42.8422C91.7953 42.9876 92.0637 43.1999 92.2753 43.4633L92.8773 43.0883C92.6006 42.7258 92.2424 42.4337 91.8316 42.2356C91.4209 42.0376 90.9693 41.9392 90.5134 41.9483C88.7782 41.9483 87.3833 43.207 87.3833 45.0971C87.3833 46.9872 88.7795 48.2539 90.5134 48.2539C90.963 48.2581 91.4084 48.1668 91.8201 47.9859C92.2318 47.805 92.6003 47.5388 92.9013 47.2047V45.005H90.0582V45.6804Z" fill="black"/>
<path d="M97.6523 42.0483H96.8955V48.135H97.6523V42.0483Z" fill="black"/>
<path d="M101.833 48.135H105.822V47.4596H102.592V45.3613H105.758V44.6859H102.592V42.7237H105.822V42.0483H101.833V48.135Z" fill="black"/>
<path d="M110.396 43.5993C110.396 43.0254 110.916 42.6329 111.647 42.6329C111.975 42.6233 112.302 42.6833 112.605 42.8092C112.909 42.935 113.182 43.1238 113.407 43.363L113.864 42.8051C113.352 42.2712 112.632 41.9575 111.701 41.9575C110.5 41.9575 109.611 42.6409 109.611 43.646C109.611 45.8177 113.215 44.9501 113.215 46.5198C113.215 46.9857 112.868 47.569 111.781 47.569C111.419 47.5677 111.061 47.4899 110.73 47.3406C110.4 47.1913 110.105 46.9739 109.865 46.7027L109.417 47.2766C109.919 47.8426 110.696 48.2444 111.753 48.2444C113.396 48.2444 114 47.3407 114 46.4557C114.001 44.1813 110.396 44.9688 110.396 43.5993Z" fill="black"/>
</svg>
