<svg width="44" height="19" viewBox="0 0 44 19" fill="none" xmlns="http://www.w3.org/2000/svg">
<path d="M18.4 13.4001L16.3 11.3001C16.5667 10.9334 16.75 10.5581 16.85 10.1741C16.95 9.7901 17 9.39876 17 9.0001C17 8.6001 16.95 8.2081 16.85 7.8241C16.75 7.4401 16.5667 7.0821 16.3 6.7501L18.4 4.6001C18.9333 5.23343 19.3333 5.93343 19.6 6.7001C19.8667 7.46676 20 8.23343 20 9.0001C20 9.76676 19.8667 10.5254 19.6 11.2761C19.3333 12.0268 18.9333 12.7348 18.4 13.4001ZM22.65 17.7001L20.5 15.5501C21.3333 14.6168 21.9587 13.5834 22.376 12.4501C22.7933 11.3168 23.0013 10.1668 23 9.0001C23 7.83343 22.792 6.6921 22.376 5.5761C21.96 4.4601 21.3347 3.43476 20.5 2.5001L22.65 0.350098C23.7833 1.58343 24.6253 2.9421 25.176 4.4261C25.7267 5.9101 26.0013 7.43476 26 9.0001C26 10.5668 25.7247 12.1001 25.174 13.6001C24.6233 15.1001 23.782 16.4668 22.65 17.7001ZM8 11.0001C6.9 11.0001 5.958 10.6081 5.174 9.8241C4.39 9.0401 3.99867 8.09876 4 7.0001C4 5.9001 4.392 4.9581 5.176 4.1741C5.96 3.3901 6.90133 2.99876 8 3.0001C9.1 3.0001 10.042 3.3921 10.826 4.1761C11.61 4.9601 12.0013 5.90143 12 7.0001C12 8.1001 11.608 9.0421 10.824 9.8261C10.04 10.6101 9.09867 11.0014 8 11.0001ZM0 19.0001V17.8501C0 17.0501 0.216667 16.3168 0.65 15.6501C1.08333 14.9834 1.68333 14.4834 2.45 14.1501C3.31667 13.7834 4.20867 13.5001 5.126 13.3001C6.04333 13.1001 7.00133 13.0001 8 13.0001C9 13.0001 9.95867 13.1001 10.876 13.3001C11.7933 13.5001 12.6847 13.7834 13.55 14.1501C14.3167 14.4834 14.9167 14.9834 15.35 15.6501C15.7833 16.3168 16 17.0501 16 17.8501V19.0001H0ZM36 11.0001C34.9 11.0001 33.958 10.6081 33.174 9.8241C32.39 9.0401 31.9987 8.09876 32 7.0001C32 5.9001 32.392 4.9581 33.176 4.1741C33.96 3.3901 34.9013 2.99876 36 3.0001C37.1 3.0001 38.042 3.3921 38.826 4.1761C39.61 4.9601 40.0013 5.90143 40 7.0001C40 8.1001 39.608 9.0421 38.824 9.8261C38.04 10.6101 37.0987 11.0014 36 11.0001ZM28 19.0001V17.8501C28 17.0501 28.2167 16.3168 28.65 15.6501C29.0833 14.9834 29.6833 14.4834 30.45 14.1501C31.3167 13.7834 32.208 13.5001 33.124 13.3001C34.04 13.1001 34.9987 13.0001 36 13.0001C37 13.0001 37.958 13.1001 38.874 13.3001C39.79 13.5001 40.682 13.7834 41.55 14.1501C42.3167 14.4834 42.9167 14.9834 43.35 15.6501C43.7833 16.3168 44 17.0501 44 17.8501V19.0001H28Z" fill="white"/>
</svg>
