<svg width="24" height="24" viewBox="0 0 24 24" fill="none" xmlns="http://www.w3.org/2000/svg">
<path d="M8.27325 9.00146C8.12407 9.00146 7.98099 9.06073 7.8755 9.16622C7.77001 9.27171 7.71075 9.41478 7.71075 9.56396V14.484C7.71075 14.6331 7.77001 14.7762 7.8755 14.8817C7.98099 14.9872 8.12407 15.0465 8.27325 15.0465C8.42244 15.0465 8.56551 14.9872 8.671 14.8817C8.77649 14.7762 8.83575 14.6331 8.83575 14.484V13.0102C8.83575 12.9277 8.934 12.8857 8.99325 12.9427L10.9853 14.8125C11.0391 14.863 11.1024 14.9025 11.1716 14.9286C11.2407 14.9547 11.3143 14.967 11.3881 14.9646C11.462 14.9623 11.5347 14.9454 11.602 14.915C11.6694 14.8846 11.7301 14.8412 11.7806 14.7873C11.8312 14.7335 11.8707 14.6702 11.8968 14.601C11.9229 14.5319 11.9351 14.4583 11.9328 14.3844C11.9305 14.3106 11.9136 14.2379 11.8832 14.1706C11.8528 14.1032 11.8094 14.0425 11.7555 13.992L10.416 12.7342C10.3583 12.6802 10.3898 12.5805 10.467 12.5617C10.8953 12.4569 11.2704 12.1991 11.5217 11.8369C11.773 11.4746 11.8831 11.033 11.8313 10.5951C11.7795 10.1573 11.5693 9.75354 11.2403 9.45998C10.9114 9.16642 10.4864 9.00334 10.0455 9.00146H8.2725H8.27325ZM8.9295 11.4862C8.90464 11.4862 8.88079 11.4763 8.86321 11.4588C8.84563 11.4412 8.83575 11.4173 8.83575 11.3925V10.2202C8.83575 10.1685 8.87775 10.1265 8.9295 10.1265H10.0455C10.1367 10.1234 10.2275 10.1388 10.3127 10.1716C10.3978 10.2044 10.4755 10.254 10.541 10.3174C10.6066 10.3808 10.6588 10.4568 10.6944 10.5408C10.73 10.6248 10.7483 10.7151 10.7483 10.8063C10.7483 10.8976 10.73 10.9879 10.6944 11.0719C10.6588 11.1559 10.6066 11.2318 10.541 11.2953C10.4755 11.3587 10.3978 11.4083 10.3127 11.4411C10.2275 11.4739 10.1367 11.4892 10.0455 11.4862H8.9295ZM3.0885 9.62771C3.0885 9.47853 3.14776 9.33546 3.25325 9.22997C3.35874 9.12448 3.50182 9.06521 3.651 9.06521H6.37575C6.52494 9.06521 6.66801 9.12448 6.7735 9.22997C6.87899 9.33546 6.93825 9.47853 6.93825 9.62771C6.93825 9.7769 6.87899 9.91997 6.7735 10.0255C6.66801 10.131 6.52494 10.1902 6.37575 10.1902H4.30725C4.28239 10.1902 4.25854 10.2001 4.24096 10.2177C4.22338 10.2353 4.2135 10.2591 4.2135 10.284V11.4667C4.2135 11.5192 4.2555 11.5605 4.30725 11.5605H6.339C6.48818 11.5605 6.63126 11.6197 6.73675 11.7252C6.84224 11.8307 6.9015 11.9738 6.9015 12.123C6.9015 12.2721 6.84224 12.4152 6.73675 12.5207C6.63126 12.6262 6.48818 12.6855 6.339 12.6855H4.30725C4.28239 12.6855 4.25854 12.6953 4.24096 12.7129C4.22338 12.7305 4.2135 12.7544 4.2135 12.7792V14.4495C4.2135 14.5986 4.15424 14.7417 4.04875 14.8472C3.94326 14.9527 3.80019 15.012 3.651 15.012C3.50182 15.012 3.35874 14.9527 3.25325 14.8472C3.14776 14.7417 3.0885 14.5986 3.0885 14.4495V9.62697V9.62771ZM13.176 9.06521C13.0268 9.06521 12.8837 9.12448 12.7783 9.22997C12.6728 9.33546 12.6135 9.47853 12.6135 9.62771V14.4502C12.6135 14.7607 12.8648 15.0127 13.176 15.0127H15.9C16.0492 15.0127 16.1923 14.9535 16.2977 14.848C16.4032 14.7425 16.4625 14.5994 16.4625 14.4502C16.4625 14.301 16.4032 14.158 16.2977 14.0525C16.1923 13.947 16.0492 13.8877 15.9 13.8877H13.8323C13.8199 13.8877 13.8076 13.8853 13.7962 13.8805C13.7848 13.8758 13.7744 13.8688 13.7657 13.86C13.757 13.8512 13.7501 13.8408 13.7454 13.8293C13.7408 13.8179 13.7384 13.8056 13.7385 13.7932V12.78C13.7385 12.7282 13.7805 12.6862 13.8323 12.6862H15.8633C16.0124 12.6862 16.1555 12.627 16.261 12.5215C16.3665 12.416 16.4258 12.2729 16.4258 12.1237C16.4258 11.9745 16.3665 11.8315 16.261 11.726C16.1555 11.6205 16.0124 11.5612 15.8633 11.5612H13.8323C13.8074 11.5612 13.7835 11.5513 13.766 11.5338C13.7484 11.5162 13.7385 11.4923 13.7385 11.4675V10.2847C13.7385 10.2322 13.7805 10.191 13.8323 10.191H15.9C16.0492 10.191 16.1923 10.1317 16.2977 10.0262C16.4032 9.92072 16.4625 9.77765 16.4625 9.62847C16.4625 9.47928 16.4032 9.33621 16.2977 9.23072C16.1923 9.12523 16.0492 9.06597 15.9 9.06597H13.176V9.06521ZM17.8103 9.06521C17.6611 9.06521 17.518 9.12448 17.4125 9.22997C17.307 9.33546 17.2478 9.47853 17.2478 9.62771V14.4502C17.2478 14.7607 17.4998 15.0127 17.8103 15.0127H20.535C20.6842 15.0127 20.8273 14.9535 20.9327 14.848C21.0382 14.7425 21.0975 14.5994 21.0975 14.4502C21.0975 14.301 21.0382 14.158 20.9327 14.0525C20.8273 13.947 20.6842 13.8877 20.535 13.8877H18.4665C18.4541 13.8877 18.4419 13.8853 18.4305 13.8805C18.419 13.8758 18.4087 13.8688 18.3999 13.86C18.3912 13.8512 18.3843 13.8408 18.3797 13.8293C18.375 13.8179 18.3727 13.8056 18.3728 13.7932V12.78C18.3728 12.7282 18.4148 12.6862 18.4665 12.6862H20.4983C20.6474 12.6862 20.7905 12.627 20.896 12.5215C21.0015 12.416 21.0608 12.2729 21.0608 12.1237C21.0608 11.9745 21.0015 11.8315 20.896 11.726C20.7905 11.6205 20.6474 11.5612 20.4983 11.5612H18.4665C18.4416 11.5612 18.4178 11.5513 18.4002 11.5338C18.3826 11.5162 18.3728 11.4923 18.3728 11.4675V10.2847C18.3728 10.2322 18.4148 10.191 18.4665 10.191H20.535C20.6842 10.191 20.8273 10.1317 20.9327 10.0262C21.0382 9.92072 21.0975 9.77765 21.0975 9.62847C21.0975 9.47928 21.0382 9.33621 20.9327 9.23072C20.8273 9.12523 20.6842 9.06597 20.535 9.06597H17.8103V9.06521Z" fill="#CFCFCF"/>
<path d="M4.5 0.75C4.00754 0.75 3.51991 0.846997 3.06494 1.03545C2.60997 1.22391 2.19657 1.50013 1.84835 1.84835C1.14509 2.55161 0.75 3.50544 0.75 4.5V19.5C0.75 20.4946 1.14509 21.4484 1.84835 22.1516C2.19657 22.4999 2.60997 22.7761 3.06494 22.9645C3.51991 23.153 4.00754 23.25 4.5 23.25H19.5C20.4946 23.25 21.4484 22.8549 22.1516 22.1516C22.8549 21.4484 23.25 20.4946 23.25 19.5V4.5C23.25 4.00754 23.153 3.51991 22.9645 3.06494C22.7761 2.60997 22.4999 2.19657 22.1516 1.84835C21.8034 1.50013 21.39 1.22391 20.9351 1.03545C20.4801 0.846997 19.9925 0.75 19.5 0.75H4.5ZM2.25 4.5C2.25 3.90326 2.48705 3.33097 2.90901 2.90901C3.33097 2.48705 3.90326 2.25 4.5 2.25H19.5C20.0967 2.25 20.669 2.48705 21.091 2.90901C21.5129 3.33097 21.75 3.90326 21.75 4.5V19.5C21.75 20.0967 21.5129 20.669 21.091 21.091C20.669 21.5129 20.0967 21.75 19.5 21.75H4.5C3.90326 21.75 3.33097 21.5129 2.90901 21.091C2.48705 20.669 2.25 20.0967 2.25 19.5V4.5Z" fill="#CFCFCF"/>
</svg>
