<svg width="20" height="23" viewBox="0 0 20 23" fill="none" xmlns="http://www.w3.org/2000/svg">
<path opacity="0.8" d="M4.8 1.3999H12.822C13.0716 1.39979 13.3184 1.45158 13.5469 1.55198C13.7754 1.65238 13.9805 1.7992 14.1492 1.9831L19.326 7.6255C19.6307 7.95747 19.7999 8.39167 19.8 8.8423V21.1999C19.8 21.6773 19.6104 22.1351 19.2728 22.4727C18.9352 22.8103 18.4774 22.9999 18 22.9999H4.8C4.32261 22.9999 3.86477 22.8103 3.52721 22.4727C3.18964 22.1351 3 21.6773 3 21.1999V3.1999C3 2.72251 3.18964 2.26468 3.52721 1.92711C3.86477 1.58954 4.32261 1.3999 4.8 1.3999V1.3999Z" fill="#CFCFCF"/>
<path d="M4.8 14C4.64087 14 4.48825 13.9368 4.37573 13.8243C4.26321 13.7118 4.2 13.5592 4.2 13.4C4.2 13.2409 4.26321 13.0883 4.37573 12.9758C4.48825 12.8633 4.64087 12.8 4.8 12.8H13.2C13.3591 12.8 13.5117 12.8633 13.6243 12.9758C13.7368 13.0883 13.8 13.2409 13.8 13.4C13.8 13.5592 13.7368 13.7118 13.6243 13.8243C13.5117 13.9368 13.3591 14 13.2 14H4.8ZM4.8 17C4.64087 17 4.48825 16.9368 4.37573 16.8243C4.26321 16.7118 4.2 16.5592 4.2 16.4C4.2 16.2409 4.26321 16.0883 4.37573 15.9758C4.48825 15.8633 4.64087 15.8 4.8 15.8H13.2C13.3591 15.8 13.5117 15.8633 13.6243 15.9758C13.7368 16.0883 13.8 16.2409 13.8 16.4C13.8 16.5592 13.7368 16.7118 13.6243 16.8243C13.5117 16.9368 13.3591 17 13.2 17H4.8Z" fill="#CFCFCF"/>
<path fill-rule="evenodd" clip-rule="evenodd" d="M10.422 0.199951H2.4C1.92261 0.199951 1.46477 0.389594 1.12721 0.727159C0.789641 1.06472 0.599998 1.52256 0.599998 1.99995V20C0.599998 20.4773 0.789641 20.9352 1.12721 21.2727C1.46477 21.6103 1.92261 21.8 2.4 21.8H15.6C16.0774 21.8 16.5352 21.6103 16.8728 21.2727C17.2104 20.9352 17.4 20.4773 17.4 20V7.64235C17.3999 7.19172 17.2307 6.75752 16.926 6.42555L11.7492 0.783151C11.5805 0.599246 11.3754 0.452432 11.1469 0.352033C10.9184 0.251634 10.6716 0.199844 10.422 0.199951V0.199951ZM1.8 1.99995C1.8 1.84082 1.86321 1.68821 1.97573 1.57569C2.08826 1.46317 2.24087 1.39995 2.4 1.39995H10.422C10.5053 1.39986 10.5876 1.4171 10.6639 1.45056C10.7401 1.48403 10.8085 1.533 10.8648 1.59435L16.0416 7.23675C16.1433 7.34735 16.1998 7.49209 16.2 7.64235V20C16.2 20.1591 16.1368 20.3117 16.0243 20.4242C15.9117 20.5367 15.7591 20.6 15.6 20.6H2.4C2.24087 20.6 2.08826 20.5367 1.97573 20.4242C1.86321 20.3117 1.8 20.1591 1.8 20V1.99995V1.99995Z" fill="#CFCFCF"/>
<path d="M10.8 1.52002V7.16002H16.44" stroke="#CFCFCF" stroke-linecap="round" stroke-linejoin="round"/>
<path d="M6.7608 6.35952C6.93216 6.36476 7.10283 6.33554 7.26269 6.27359C7.42255 6.21163 7.56834 6.11821 7.69141 5.99885C7.81448 5.87949 7.91232 5.73663 7.97914 5.57874C8.04596 5.42086 8.08039 5.25116 8.08039 5.07972C8.08039 4.90827 8.04596 4.73858 7.97914 4.58069C7.91232 4.4228 7.81448 4.27994 7.69141 4.16058C7.56834 4.04123 7.42255 3.9478 7.26269 3.88584C7.10283 3.82389 6.93216 3.79467 6.7608 3.79992C6.42816 3.8101 6.11255 3.9494 5.88086 4.1883C5.64917 4.4272 5.51959 4.74692 5.51959 5.07972C5.51959 5.41251 5.64917 5.73223 5.88086 5.97113C6.11255 6.21003 6.42816 6.34933 6.7608 6.35952Z" fill="#CFCFCF"/>
<path fill-rule="evenodd" clip-rule="evenodd" d="M9.3192 9.13287C9.3192 7.77207 8.1732 6.78687 6.7596 6.78687C5.346 6.78687 4.2 7.77087 4.2 9.13287V9.77366C4.20031 9.88676 4.24546 9.99511 4.32554 10.075C4.40563 10.1548 4.5141 10.1997 4.6272 10.1997H8.8932C9.00608 10.1993 9.11425 10.1544 9.19408 10.0745C9.2739 9.99472 9.31888 9.88655 9.3192 9.77366V9.13287Z" fill="#CFCFCF"/>
</svg>
