<svg width="24" height="24" viewBox="0 0 24 24" fill="none" xmlns="http://www.w3.org/2000/svg">
<path d="M4.5 21C5.32843 21 6 20.3284 6 19.5C6 18.6716 5.32843 18 4.5 18C3.67157 18 3 18.6716 3 19.5C3 20.3284 3.67157 21 4.5 21Z" fill="#CFCFCF"/>
<path d="M21 13.5H18.75V12C18.7496 11.6023 18.5914 11.221 18.3102 10.9398C18.029 10.6586 17.6477 10.5004 17.25 10.5H14.25C13.8523 10.5004 13.471 10.6586 13.1898 10.9398C12.9086 11.221 12.7504 11.6023 12.75 12V13.5H10.5C10.1023 13.5004 9.721 13.6586 9.43978 13.9398C9.15856 14.221 9.0004 14.6023 9 15V21C9.0004 21.3977 9.15856 21.779 9.43978 22.0602C9.721 22.3414 10.1023 22.4996 10.5 22.5H21C21.3977 22.4996 21.779 22.3414 22.0602 22.0602C22.3414 21.779 22.4996 21.3977 22.5 21V15C22.4996 14.6023 22.3414 14.221 22.0602 13.9398C21.779 13.6586 21.3977 13.5004 21 13.5ZM14.25 12H17.25V13.5H14.25V12ZM21 21H10.5V15H21V21Z" fill="#CFCFCF"/>
<path d="M7.5 4.5H10.5V9H12V4.5H15V9H16.5V4.5H19.5V9H21V4.50375C21 4.10493 20.8416 3.72245 20.5596 3.44044C20.2776 3.15843 19.8951 3 19.4963 3H3.00375C2.60493 3 2.22245 3.15843 1.94044 3.44044C1.65843 3.72245 1.5 4.10493 1.5 4.50375V14.9963C1.5 15.3951 1.65843 15.7776 1.94044 16.0596C2.22245 16.3416 2.60493 16.5 3.00375 16.5H7.5V4.5ZM6 15H3V4.5H6V15Z" fill="#CFCFCF"/>
</svg>
