<svg width="47" height="47" viewBox="0 0 47 47" fill="none" xmlns="http://www.w3.org/2000/svg">
<circle cx="23.5" cy="23.5" r="23.5" fill="#1FABE9"/>
<path d="M30.95 32C28.8 32 26.7043 31.5207 24.663 30.562C22.6217 29.6033 20.8133 28.3367 19.238 26.762C17.6627 25.1873 16.396 23.379 15.438 21.337C14.48 19.295 14.0007 17.1993 14 15.05C14 14.75 14.1 14.5 14.3 14.3C14.5 14.1 14.75 14 15.05 14H19.1C19.3333 14 19.5417 14.075 19.725 14.225C19.9083 14.375 20.0167 14.5667 20.05 14.8L20.7 18.3C20.7333 18.5333 20.729 18.746 20.687 18.938C20.645 19.13 20.5493 19.3007 20.4 19.45L18 21.9C18.7 23.1 19.575 24.225 20.625 25.275C21.675 26.325 22.8333 27.2333 24.1 28L26.45 25.65C26.6 25.5 26.796 25.3877 27.038 25.313C27.28 25.2383 27.5173 25.2173 27.75 25.25L31.2 25.95C31.4333 26 31.625 26.1127 31.775 26.288C31.925 26.4633 32 26.6673 32 26.9V30.95C32 31.25 31.9 31.5 31.7 31.7C31.5 31.9 31.25 32 30.95 32Z" fill="white"/>
</svg>
