<svg width="24" height="24" viewBox="0 0 24 24" fill="none" xmlns="http://www.w3.org/2000/svg">
<path d="M8.8765 9.34411C8.8765 8.72953 9.12063 8.14013 9.5552 7.70556C9.98977 7.27099 10.5792 7.02686 11.1937 7.02686C11.8083 7.02686 12.3977 7.27099 12.8323 7.70556C13.2669 8.14013 13.511 8.72953 13.511 9.34411M13.511 9.34411V10.7386M8.8765 9.34411V10.7201" stroke="#CFCFCF" stroke-linecap="round" stroke-linejoin="round"/>
<path d="M11.1935 14.478C11.6389 14.478 12 14.1169 12 13.6715C12 13.2261 11.6389 12.865 11.1935 12.865C10.7481 12.865 10.387 13.2261 10.387 13.6715C10.387 14.1169 10.7481 14.478 11.1935 14.478Z" stroke="#CFCFCF" stroke-linecap="round" stroke-linejoin="round"/>
<path d="M11.1935 15.2669V14.5029" stroke="#CFCFCF" stroke-linecap="round" stroke-linejoin="round"/>
<path d="M12.633 10.5491H9.75401C8.77508 10.5491 7.98151 11.3426 7.98151 12.3216V15.2006C7.98151 16.1795 8.77508 16.9731 9.75401 16.9731H12.633C13.6119 16.9731 14.4055 16.1795 14.4055 15.2006V12.3216C14.4055 11.3426 13.6119 10.5491 12.633 10.5491Z" stroke="#CFCFCF" stroke-linecap="round" stroke-linejoin="round"/>
<path d="M21.2235 17.374C20.2801 19.0082 18.9231 20.3652 17.289 21.3087C15.6549 22.2522 13.8012 22.749 11.9142 22.749C10.0273 22.749 8.17359 22.2524 6.53943 21.3089C4.90527 20.3655 3.54825 19.0085 2.60476 17.3744C1.66126 15.7403 1.16454 13.8866 1.16452 11.9996C1.1645 10.1127 1.66118 8.25897 2.60464 6.62482C3.5481 4.99067 4.90509 3.63366 6.53923 2.69018C8.17336 1.74671 10.0271 1.25 11.914 1.25" stroke="#CFCFCF" stroke-width="0.845" stroke-linecap="round" stroke-linejoin="round"/>
</svg>
