<svg width="48" height="45" viewBox="0 0 48 45" fill="none" xmlns="http://www.w3.org/2000/svg">
<path d="M5.29688 13.4297C4.54688 12.6797 3.97656 11.8281 3.58594 10.875C3.19531 9.92188 3 8.92188 3 7.875C3 6.76562 3.20312 5.74219 3.60938 4.80469C4.01562 3.86719 4.57031 3.04688 5.27344 2.34375C5.97656 1.64062 6.8125 1.09375 7.78125 0.703125C8.75 0.3125 9.77344 0.109375 10.8516 0.09375C11.8828 0.09375 12.8828 0.273438 13.8516 0.632812C14.8203 0.992188 15.6797 1.54688 16.4297 2.29688L24.7031 10.5703L22.5703 12.7031L18 8.13281L11.1328 15L15.7031 19.5703L13.5703 21.7031L5.29688 13.4297ZM10.875 3.04688C10.2031 3.04688 9.57031 3.16406 8.97656 3.39844C8.38281 3.63281 7.86719 3.97656 7.42969 4.42969C6.99219 4.88281 6.64844 5.39062 6.39844 5.95312C6.14844 6.51562 6.01562 7.15625 6 7.875C6 8.46875 6.07812 8.98438 6.23438 9.42188C6.39062 9.85938 6.61719 10.2734 6.91406 10.6641C7.21094 11.0547 7.53125 11.4219 7.875 11.7656C8.21875 12.1094 8.59375 12.4766 9 12.8672L15.8672 6C15.4609 5.60938 15.0938 5.23438 14.7656 4.875C14.4375 4.51562 14.0781 4.20312 13.6875 3.9375C13.2969 3.67188 12.8906 3.45312 12.4688 3.28125C12.0469 3.10938 11.5156 3.03125 10.875 3.04688ZM48 45L33.1641 41.2969L26.2969 34.4297L28.4297 32.2969L33.5156 37.4062C33.7656 36.5938 34.1094 35.8281 34.5469 35.1094C34.9844 34.3906 35.5078 33.7266 36.1172 33.1172C36.7266 32.5078 37.3828 31.9922 38.0859 31.5703C38.7891 31.1484 39.5625 30.7969 40.4062 30.5156L35.2969 25.4297L37.4297 23.2969L44.2969 30.1641L48 45ZM43.875 40.875L41.9531 33.1641C41.2188 33.3203 40.5391 33.5703 39.9141 33.9141C39.2891 34.2578 38.7188 34.6875 38.2031 35.2031C37.6875 35.7188 37.2578 36.2891 36.9141 36.9141C36.5703 37.5391 36.3203 38.2188 36.1641 38.9531L43.875 40.875ZM40.5 1.5C41.3281 1.5 42.1016 1.65625 42.8203 1.96875C43.5391 2.28125 44.1797 2.71094 44.7422 3.25781C45.3047 3.80469 45.7344 4.4375 46.0312 5.15625C46.3281 5.875 46.4844 6.65625 46.5 7.5C46.5 8.29688 46.3516 9.0625 46.0547 9.79688C45.7578 10.5312 45.3203 11.1797 44.7422 11.7422L17.8828 38.6016C17.7422 39.5234 17.4531 40.3672 17.0156 41.1328C16.5781 41.8984 16.0312 42.5781 15.375 43.1719C14.7188 43.7656 13.9766 44.2109 13.1484 44.5078C12.3203 44.8047 11.4375 44.9688 10.5 45H0V42C0.171875 42 0.351562 41.9766 0.539062 41.9297C0.726562 41.8828 0.898438 41.8125 1.05469 41.7188C1.44531 41.5156 1.76562 41.2578 2.01562 40.9453C2.26562 40.6328 2.46094 40.2891 2.60156 39.9141C2.74219 39.5391 2.84375 39.1484 2.90625 38.7422C2.96875 38.3359 3 37.9219 3 37.5C3 36.5781 3.15625 35.7031 3.46875 34.875C3.78125 34.0469 4.23438 33.2969 4.82812 32.625C5.42188 31.9531 6.09375 31.4062 6.84375 30.9844C7.59375 30.5625 8.44531 30.2734 9.39844 30.1172L36.2578 3.25781C36.8203 2.69531 37.4688 2.26562 38.2031 1.96875C38.9375 1.67188 39.7031 1.51562 40.5 1.5ZM10.5 42C11.125 42 11.7109 41.8828 12.2578 41.6484C12.8047 41.4141 13.2812 41.0938 13.6875 40.6875C14.0938 40.2812 14.4141 39.8047 14.6484 39.2578C14.8828 38.7109 15 38.125 15 37.5C15 36.875 14.8828 36.2891 14.6484 35.7422C14.4141 35.1953 14.0938 34.7188 13.6875 34.3125C13.2812 33.9062 12.8047 33.5859 12.2578 33.3516C11.7109 33.1172 11.125 33 10.5 33C9.875 33 9.28906 33.1172 8.74219 33.3516C8.19531 33.5859 7.71875 33.9062 7.3125 34.3125C6.90625 34.7188 6.58594 35.1953 6.35156 35.7422C6.11719 36.2891 6 36.875 6 37.5C6 39.125 5.5 40.625 4.5 42H10.5ZM22.6406 29.6016C22.1406 28.6172 21.5547 27.7891 20.8828 27.1172C20.2109 26.4453 19.3828 25.8594 18.3984 25.3594L13.2188 30.5391C14.1875 30.9141 15.0391 31.4688 15.7734 32.2031C16.5078 32.9375 17.0703 33.7969 17.4609 34.7812L22.6406 29.6016ZM42.6094 9.60938C43.1875 9.03125 43.4766 8.32812 43.4766 7.5C43.4766 7.09375 43.3984 6.71094 43.2422 6.35156C43.0859 5.99219 42.875 5.67969 42.6094 5.41406C42.3438 5.14844 42.0234 4.92969 41.6484 4.75781C41.2734 4.58594 40.8906 4.50781 40.5 4.52344C39.6719 4.52344 38.9688 4.8125 38.3906 5.39062L20.6016 23.1562C21.5547 23.7188 22.3594 24.3281 23.0156 24.9844C23.6719 25.6406 24.2812 26.4453 24.8438 27.3984L42.6094 9.60938Z" fill="white"/>
</svg>
