<svg width="42" height="38" viewBox="0 0 42 38" fill="none" xmlns="http://www.w3.org/2000/svg">
<path d="M21 0C18.46 0 16.2 1.6 15.36 4H2.99999V8H6.89999L0.999986 22C0.0599859 26 2.99999 28 7.99999 28C13 28 16.12 26 15 22L9.09999 8H15.34C16 9.7 17.3 11 19 11.66V34H0.999986V38H41V34H23V11.64C24.7 11 26 9.7 26.64 8H32.9L27 22C26.06 26 29 28 34 28C39 28 42.12 26 41 22L35.1 8H39V4H26.66C25.8 1.6 23.54 0 21 0ZM21 4C21.5304 4 22.0391 4.21071 22.4142 4.58579C22.7893 4.96086 23 5.46957 23 6C23 6.53043 22.7893 7.03914 22.4142 7.41421C22.0391 7.78929 21.5304 8 21 8C20.4696 8 19.9608 7.78929 19.5858 7.41421C19.2107 7.03914 19 6.53043 19 6C19 5.46957 19.2107 4.96086 19.5858 4.58579C19.9608 4.21071 20.4696 4 21 4ZM7.99999 14.5L11 22H4.99999L7.99999 14.5ZM34 14.5L37 22H31L34 14.5Z" fill="white"/>
</svg>
